# xmcd
#
# Track frame offsets:
#	150
#	19710
#	38151
#	59093
#	86620
#	109609
#	129533
#	149324
#	170491
#	192442
#	213386
#	234529
#	253131
#	269658
#	291573
#
# Disc length: 4171 seconds
#
# Revision: 1
# Processed by: cddbd v1.5.2PL0 Copyright (c) Steve Scherf et al.
# Submitted via: audiograbber 1.83.01
#
DISCID=ec10490f
DTITLE=Chartbuster - CB-E8-22
DYEAR=1900
DGENRE=Instrumental
TTITLE0=Tony Toni Ton' - If I Had No Loot
TTITLE1=Motley Crue - Home Sweet Home
TTITLE2=TLC - Diggin' On You
TTITLE3=Bryan Adams - Please Forgive Me
TTITLE4=Amy Grant - I Will Remember You
TTITLE5=Spin Doctors - Two Princes
TTITLE6=Hootie and The Blowfish - Hold My Hand
TTITLE7=Blues Travler - Run Around
TTITLE8=Blessed Union Of Souls - I Believe
TTITLE9=Jon Secada - Just Another Day
TTITLE10=Patty Smyth - Sometimes Love Just Ain't Enough
TTITLE11=Beck - Loser
TTITLE12=Bonnie Raitt - Love Sneakin' Up On You
TTITLE13=Brian McKnight - One Last Cry
TTITLE14=Bryan Adams, Sting and Rod Stewart - All For Love
EXTD=
EXTT0=
EXTT1=
EXTT2=
EXTT3=
EXTT4=
EXTT5=
EXTT6=
EXTT7=
EXTT8=
EXTT9=
EXTT10=
EXTT11=
EXTT12=
EXTT13=
EXTT14=
PLAYORDER=
